<svg height="511pt" viewBox="0 -31 511.99455 511" width="511pt" xmlns="http://www.w3.org/2000/svg"><path d="m359.167969 329.957031c-34.960938-34.964843-34.960938-91.648437 0-126.613281 24.527343-24.523438 59.734375-31.820312 90.644531-21.9375v-134.105469c0-25.742187-21.0625-46.804687-46.804688-46.804687h-356.203124c-25.742188 0-46.804688 21.0625-46.804688 46.804687v356.203125c0 25.742188 21.0625 46.804688 46.804688 46.804688h356.203124c25.742188 0 46.804688-21.0625 46.804688-46.804688v-51.609375c-30.910156 9.882813-66.117188 2.585938-90.644531-21.9375zm0 0" fill="#576574"/><path d="m30.90625 403.503906v-356.203125c0-25.742187 21.0625-46.804687 46.804688-46.804687h-30.90625c-25.742188 0-46.804688 21.0625-46.804688 46.804687v356.203125c0 25.742188 21.0625 46.804688 46.804688 46.804688h30.90625c-25.742188 0-46.804688-21.0625-46.804688-46.804688zm0 0" fill="#3e4b5a"/><path d="m224.90625 70.660156c-76.863281 0-142.222656 49.234375-166.265625 117.886719-6.226563 17.777344 6.902344 36.648437 25.734375 36.851563.132812 0 .265625.003906.398438.003906h83.976562c3.808594 0 7.386719-2.011719 9.214844-5.351563 9.085937-16.585937 26.695312-27.835937 46.941406-27.835937 20.242188 0 37.855469 11.25 46.941406 27.835937 1.828125 3.339844 5.40625 5.351563 9.214844 5.351563h61.933594c4.125-7.941406 9.507812-15.394532 16.171875-22.058594 8.882812-8.878906 19.167969-15.488281 30.140625-19.851562-25.429688-66-89.441406-112.832032-164.402344-112.832032zm0 0" fill="#8ac2ff"/><path d="m89.546875 188.550781c22.414063-64.003906 80.738281-111.121093 150.808594-117.214843-5.089844-.441407-10.242188-.675782-15.449219-.675782-76.863281 0-142.222656 49.234375-166.265625 117.890625-6.226563 17.773438 6.902344 36.648438 25.734375 36.847657.132812.003906.265625.003906.398438.003906h30.90625c-.132813 0-.265626 0-.398438-.003906-18.832031-.199219-31.960938-19.074219-25.734375-36.847657zm0 0" fill="#54a0ff"/><path d="m225.269531 226.308594c-9.570312 0-17.402343 7.832031-17.402343 17.402344 0 9.566406 7.832031 17.398437 17.402343 17.398437 9.570313 0 17.398438-7.832031 17.398438-17.398437 0-9.570313-7.828125-17.402344-17.398438-17.402344zm0 0" fill="#3e4b5a"/><path d="m225.269531 164.757812c-38.226562 0-70.441406 25.636719-80.453125 60.644532h23.933594c3.808594 0 7.386719-2.007813 9.214844-5.351563 9.085937-16.582031 26.695312-27.832031 46.941406-27.832031 20.242188 0 37.855469 11.246094 46.941406 27.832031 1.828125 3.34375 5.40625 5.351563 9.214844 5.351563h24.65625c-10.011719-35.007813-42.226562-60.644532-80.449219-60.644532zm0 0" fill="#54a0ff"/><path d="m176.945312 221.535156c9.601563-28.273437 33.882813-49.746094 63.777344-55.332031-5.011718-.9375-10.171875-1.445313-15.453125-1.445313-38.226562 0-70.441406 25.636719-80.453125 60.644532h23.933594c3.199219 0 6.222656-1.433594 8.195312-3.867188zm0 0" fill="#338def"/><path d="m279.792969 103.671875c-3.980469-1.546875-8.457031.417969-10.003907 4.394531l-33.261718 85.425782c5.128906 1.136718 9.984375 3.007812 14.441406 5.5l33.21875-85.316407c1.550781-3.976562-.417969-8.457031-4.394531-10.003906zm0 0" fill="#e4eaf8"/><path d="m485.339844 202.300781c-35.539063-35.539062-93.160156-35.539062-128.699219 0-35.539063 35.542969-35.539063 93.160157 0 128.699219 35.539063 35.542969 93.160156 35.542969 128.699219 0 35.539062-35.539062 35.539062-93.15625 0-128.699219zm0 0" fill="#ff6b6b"/><path d="m387.550781 331c-35.539062-35.539062-35.539062-93.160156 0-128.699219 13.824219-13.824219 30.992188-22.246093 48.898438-25.316406-28.128907-4.820313-58.089844 3.601563-79.804688 25.316406-35.539062 35.539063-35.539062 93.160157 0 128.699219 21.714844 21.71875 51.675781 30.136719 79.804688 25.316406-17.90625-3.070312-35.074219-11.492187-48.898438-25.316406zm0 0" fill="#ee5253"/><path d="m420.996094 293.914062c-4.339844 0-7.855469-3.515624-7.855469-7.851562v-77.042969c0-4.335937 3.515625-7.851562 7.855469-7.851562 4.335937 0 7.851562 3.515625 7.851562 7.851562v77.042969c.003906 4.335938-3.515625 7.851562-7.851562 7.851562zm0 0" fill="#e4eaf8"/><path d="m451.339844 283.207031-28.523438 40.132813c-.890625 1.253906-2.753906 1.253906-3.644531 0l-28.523437-40.132813c-1.050782-1.480469.007812-3.53125 1.824218-3.53125h57.046875c1.816407 0 2.871094 2.050781 1.820313 3.53125zm0 0" fill="#e4eaf8"/><path d="m421.558594 283.207031c-1.054688-1.480469.003906-3.53125 1.820312-3.53125h-30.90625c-1.816406 0-2.875 2.050781-1.824218 3.53125l28.523437 40.132813c.890625 1.253906 2.753906 1.253906 3.644531 0l13.632813-19.179688zm0 0" fill="#c7d2e5"/><path d="m228.027344 243.710938c0-5.820313 2.902344-10.980469 7.320312-14.144532-2.851562-2.039062-6.328125-3.257812-10.078125-3.257812-9.570312 0-17.402343 7.832031-17.402343 17.402344 0 9.566406 7.832031 17.398437 17.402343 17.398437 3.75 0 7.226563-1.21875 10.078125-3.257813-4.417968-3.164062-7.320312-8.324218-7.320312-14.140624zm0 0" fill="#2e3c47"/></svg>